#Comment line ignore any data following # character 
#Hierarchical Translation and Rotation (.htr) file 
[Header]	
#Header keywords are followed by a single value 
FileType HTR		#Single word string
DataType HTRS		#Translation followed by rotation and scale data
FileVersion 1		#integer
NumSegments 84		#integer
NumFrames 2		#integer
DataFrameRate 30		#integer, data frame rate in this file
EulerRotationOrder ZYX
CalibrationUnits mm
RotationUnits Degrees
GlobalAxisofGravity Y
BoneLengthAxis Y
ScaleFactor 1.00
[SegmentNames&Hierarchy]
#CHILD	PARENT
MASTER GLOBAL
root MASTER
chest root
L_mid_tent01 root
R_mid_tent01 root
spine01 root
Bip01_Neck chest
L_humerus chest
R_humerus chest
weapon_bone chest
Bip01_Head Bip01_Neck
eye_left_bone Bip01_Head
eye_right_bone Bip01_Head
L_forearm L_humerus
L_front_hand L_forearm
L_weapon_bone L_forearm
L_front_hand01_01 L_front_hand
L_front_hand02_01 L_front_hand
L_front_hand03_01 L_front_hand
L_front_hand01_02 L_front_hand01_01
L_front_hand02_02 L_front_hand02_01
L_front_hand03_02 L_front_hand03_01
R_forearm R_humerus
R_front_hand R_forearm
R_weapon_bone R_forearm
R_front_hand01_01 R_front_hand
R_front_hand02_01 R_front_hand
R_front_hand03_01 R_front_hand
R_front_hand01_02 R_front_hand01_01
R_front_hand02_02 R_front_hand02_01
R_front_hand03_02 R_front_hand03_01
null_rope01_connect L_mid_tent01
Rope1_Seg01 null_rope01_connect
Rope1_Seg02 Rope1_Seg01
Rope1_Seg03 Rope1_Seg02
Rope1_Seg04 Rope1_Seg03
Rope1_Seg05 Rope1_Seg04
Rope1_Seg06 Rope1_Seg05
Rope1_Seg07 Rope1_Seg06
Rope1_Seg09 Rope1_Seg07
L_mid_hand01 Rope1_Seg09
L_mid_hand02 Rope1_Seg09
L_mid_hand03 Rope1_Seg09
null_rope02_connect R_mid_tent01
Rope2_Seg01 null_rope02_connect
Rope2_Seg02 Rope2_Seg01
Rope2_Seg03 Rope2_Seg02
Rope2_Seg04 Rope2_Seg03
Rope2_Seg05 Rope2_Seg04
Rope2_Seg06 Rope2_Seg05
Rope2_Seg07 Rope2_Seg06
Rope2_Seg09 Rope2_Seg07
R_mid_hand01 Rope2_Seg09
R_mid_hand02 Rope2_Seg09
R_mid_hand03 Rope2_Seg09
spine02 spine01
spine03 spine02
pelvis spine03
null_rope03_connect pelvis
null_rope04_connect pelvis
Rope3_Seg01 null_rope03_connect
Rope3_Seg02 Rope3_Seg01
Rope3_Seg03 Rope3_Seg02
Rope3_Seg04 Rope3_Seg03
Rope3_Seg05 Rope3_Seg04
Rope3_Seg06 Rope3_Seg05
Rope3_Seg07 Rope3_Seg06
Rope3_Seg08 Rope3_Seg07
Rope3_Seg09 Rope3_Seg08
R_rear_hand01 Rope3_Seg09
R_rear_hand02 Rope3_Seg09
R_rear_hand03 Rope3_Seg09
Rope4_Seg01 null_rope04_connect
Rope4_Seg02 Rope4_Seg01
Rope4_Seg03 Rope4_Seg02
Rope4_Seg04 Rope4_Seg03
Rope4_Seg05 Rope4_Seg04
Rope4_Seg06 Rope4_Seg05
Rope4_Seg07 Rope4_Seg06
Rope4_Seg08 Rope4_Seg07
Rope4_Seg09 Rope4_Seg08
L_rear_hand01 Rope4_Seg09
L_rear_hand02 Rope4_Seg09
L_rear_hand03 Rope4_Seg09
[BasePosition]
#SegmentName Tx, Ty, Tz, Rx, Ry, Rz, BoneLength
MASTER 0.000000 0.000000 0.000000 -90.000000 0.000000 0.000000 10.000000 
root 0.000000 0.000000 0.000000 0.000000 0.000000 0.000000 10.000000 
chest 0.000000 0.000000 0.000000 0.000000 0.000000 0.000000 10.000000 
L_mid_tent01 0.000000 0.000000 0.000000 0.000000 0.000000 0.000000 10.000000 
R_mid_tent01 0.000000 0.000000 0.000000 0.000000 0.000000 0.000000 10.000000 
spine01 0.000000 0.000000 0.000000 0.000000 0.000000 0.000000 10.000000 
Bip01_Neck 0.000000 0.000000 0.000000 0.000000 0.000000 0.000000 10.000000 
L_humerus 0.000000 0.000000 0.000000 0.000000 0.000000 0.000000 10.000000 
R_humerus 0.000000 0.000000 0.000000 0.000000 0.000000 0.000000 10.000000 
weapon_bone 0.000000 0.000000 0.000000 0.000000 0.000000 0.000000 10.000000 
Bip01_Head 0.000000 0.000000 0.000000 0.000000 0.000000 0.000000 10.000000 
eye_left_bone 0.000000 0.000000 0.000000 0.000000 0.000000 0.000000 10.000000 
eye_right_bone 0.000000 0.000000 0.000000 0.000000 0.000000 0.000000 10.000000 
L_forearm 0.000000 0.000000 0.000000 0.000000 0.000000 0.000000 10.000000 
L_front_hand 0.000000 0.000000 0.000000 0.000000 0.000000 0.000000 10.000000 
L_weapon_bone 0.000000 0.000000 0.000000 0.000000 0.000000 0.000000 10.000000 
L_front_hand01_01 0.000000 0.000000 0.000000 0.000000 0.000000 0.000000 10.000000 
L_front_hand02_01 0.000000 0.000000 0.000000 0.000000 0.000000 0.000000 10.000000 
L_front_hand03_01 0.000000 0.000000 0.000000 0.000000 0.000000 0.000000 10.000000 
L_front_hand01_02 0.000000 0.000000 0.000000 0.000000 0.000000 0.000000 10.000000 
L_front_hand02_02 0.000000 0.000000 0.000000 0.000000 0.000000 0.000000 10.000000 
L_front_hand03_02 0.000000 0.000000 0.000000 0.000000 0.000000 0.000000 10.000000 
R_forearm 0.000000 0.000000 0.000000 0.000000 0.000000 0.000000 10.000000 
R_front_hand 0.000000 0.000000 0.000000 0.000000 0.000000 0.000000 10.000000 
R_weapon_bone 0.000000 0.000000 0.000000 0.000000 0.000000 0.000000 10.000000 
R_front_hand01_01 0.000000 0.000000 0.000000 0.000000 0.000000 0.000000 10.000000 
R_front_hand02_01 0.000000 0.000000 0.000000 0.000000 0.000000 0.000000 10.000000 
R_front_hand03_01 0.000000 0.000000 0.000000 0.000000 0.000000 0.000000 10.000000 
R_front_hand01_02 0.000000 0.000000 0.000000 0.000000 0.000000 0.000000 10.000000 
R_front_hand02_02 0.000000 0.000000 0.000000 0.000000 0.000000 0.000000 10.000000 
R_front_hand03_02 0.000000 0.000000 0.000000 0.000000 0.000000 0.000000 10.000000 
null_rope01_connect 0.000000 0.000000 0.000000 0.000000 0.000000 0.000000 10.000000 
Rope1_Seg01 0.000000 0.000000 0.000000 0.000000 0.000000 0.000000 10.000000 
Rope1_Seg02 0.000000 0.000000 0.000000 0.000000 0.000000 0.000000 10.000000 
Rope1_Seg03 0.000000 0.000000 0.000000 0.000000 0.000000 0.000000 10.000000 
Rope1_Seg04 0.000000 0.000000 0.000000 0.000000 0.000000 0.000000 10.000000 
Rope1_Seg05 0.000000 0.000000 0.000000 0.000000 0.000000 0.000000 10.000000 
Rope1_Seg06 0.000000 0.000000 0.000000 0.000000 0.000000 0.000000 10.000000 
Rope1_Seg07 0.000000 0.000000 0.000000 0.000000 0.000000 0.000000 10.000000 
Rope1_Seg09 0.000000 0.000000 0.000000 0.000000 0.000000 0.000000 10.000000 
L_mid_hand01 0.000000 0.000000 0.000000 0.000000 0.000000 0.000000 10.000000 
L_mid_hand02 0.000000 0.000000 0.000000 0.000000 0.000000 0.000000 10.000000 
L_mid_hand03 0.000000 0.000000 0.000000 0.000000 0.000000 0.000000 10.000000 
null_rope02_connect 0.000000 0.000000 0.000000 0.000000 0.000000 0.000000 10.000000 
Rope2_Seg01 0.000000 0.000000 0.000000 0.000000 0.000000 0.000000 10.000000 
Rope2_Seg02 0.000000 0.000000 0.000000 0.000000 0.000000 0.000000 10.000000 
Rope2_Seg03 0.000000 0.000000 0.000000 0.000000 0.000000 0.000000 10.000000 
Rope2_Seg04 0.000000 0.000000 0.000000 0.000000 0.000000 0.000000 10.000000 
Rope2_Seg05 0.000000 0.000000 0.000000 0.000000 0.000000 0.000000 10.000000 
Rope2_Seg06 0.000000 0.000000 0.000000 0.000000 0.000000 0.000000 10.000000 
Rope2_Seg07 0.000000 0.000000 0.000000 0.000000 0.000000 0.000000 10.000000 
Rope2_Seg09 0.000000 0.000000 0.000000 0.000000 0.000000 0.000000 10.000000 
R_mid_hand01 0.000000 0.000000 0.000000 0.000000 0.000000 0.000000 10.000000 
R_mid_hand02 0.000000 0.000000 0.000000 0.000000 0.000000 0.000000 10.000000 
R_mid_hand03 0.000000 0.000000 0.000000 0.000000 0.000000 0.000000 10.000000 
spine02 0.000000 0.000000 0.000000 0.000000 0.000000 0.000000 10.000000 
spine03 0.000000 0.000000 0.000000 0.000000 0.000000 0.000000 10.000000 
pelvis 0.000000 0.000000 0.000000 0.000000 0.000000 0.000000 10.000000 
null_rope03_connect 0.000000 0.000000 0.000000 0.000000 0.000000 0.000000 10.000000 
null_rope04_connect 0.000000 0.000000 0.000000 0.000000 0.000000 0.000000 10.000000 
Rope3_Seg01 0.000000 0.000000 0.000000 0.000000 0.000000 0.000000 10.000000 
Rope3_Seg02 0.000000 0.000000 0.000000 0.000000 0.000000 0.000000 10.000000 
Rope3_Seg03 0.000000 0.000000 0.000000 0.000000 0.000000 0.000000 10.000000 
Rope3_Seg04 0.000000 0.000000 0.000000 0.000000 0.000000 0.000000 10.000000 
Rope3_Seg05 0.000000 0.000000 0.000000 0.000000 0.000000 0.000000 10.000000 
Rope3_Seg06 0.000000 0.000000 0.000000 0.000000 0.000000 0.000000 10.000000 
Rope3_Seg07 0.000000 0.000000 0.000000 0.000000 0.000000 0.000000 10.000000 
Rope3_Seg08 0.000000 0.000000 0.000000 0.000000 0.000000 0.000000 10.000000 
Rope3_Seg09 0.000000 0.000000 0.000000 0.000000 0.000000 0.000000 10.000000 
R_rear_hand01 0.000000 0.000000 0.000000 0.000000 0.000000 0.000000 10.000000 
R_rear_hand02 0.000000 0.000000 0.000000 0.000000 0.000000 0.000000 10.000000 
R_rear_hand03 0.000000 0.000000 0.000000 0.000000 0.000000 0.000000 10.000000 
Rope4_Seg01 0.000000 0.000000 0.000000 0.000000 0.000000 0.000000 10.000000 
Rope4_Seg02 0.000000 0.000000 0.000000 0.000000 0.000000 0.000000 10.000000 
Rope4_Seg03 0.000000 0.000000 0.000000 0.000000 0.000000 0.000000 10.000000 
Rope4_Seg04 0.000000 0.000000 0.000000 0.000000 0.000000 0.000000 10.000000 
Rope4_Seg05 0.000000 0.000000 0.000000 0.000000 0.000000 0.000000 10.000000 
Rope4_Seg06 0.000000 0.000000 0.000000 0.000000 0.000000 0.000000 10.000000 
Rope4_Seg07 0.000000 0.000000 0.000000 0.000000 0.000000 0.000000 10.000000 
Rope4_Seg08 0.000000 0.000000 0.000000 0.000000 0.000000 0.000000 10.000000 
Rope4_Seg09 0.000000 0.000000 0.000000 0.000000 0.000000 0.000000 10.000000 
L_rear_hand01 0.000000 0.000000 0.000000 0.000000 0.000000 0.000000 10.000000 
L_rear_hand02 0.000000 0.000000 0.000000 0.000000 0.000000 0.000000 10.000000 
L_rear_hand03 0.000000 0.000000 0.000000 0.000000 0.000000 0.000000 10.000000 
#Beginning of Data. Separated by tabs
#Fr	Tx	Ty	Tz	Rx	Ry	Rz	SF
[MASTER]
8 0.000000 0.000000 0.000000 0.001660 0.001660 0.001660 0.000000
9 0.000000 0.000000 0.000000 0.001660 0.001660 0.001660 0.000000
[root]
8 -21.153835 -70.924698 1504.281982 -108.551575 22.844170 -90.362846 1506.101685
9 -18.200785 -72.521614 1492.231567 -108.527763 22.700563 -90.310951 1494.103638
[chest]
8 -86.836617 -33.005978 -30.127253 0.892108 -8.669818 179.965439 97.660858
9 -86.836617 -33.005978 -30.127251 1.276117 -8.726423 -179.865906 97.660858
[L_mid_tent01]
8 27.299526 22.177580 -249.918289 -9.266797 11.208656 67.626175 252.381180
9 27.299526 22.177580 -249.918289 -9.247259 11.991044 67.603844 252.381180
[R_mid_tent01]
8 23.228794 24.509907 226.238495 -176.116348 -12.211669 65.894836 228.744751
9 23.228794 24.509907 226.238495 -176.110153 -12.638518 65.865311 228.744751
[spine01]
8 -0.361383 -0.195265 0.000000 -0.000001 -0.000007 22.052340 0.410763
9 -0.361383 -0.195265 0.000000 -0.000001 -0.000007 22.052340 0.410763
[Bip01_Neck]
8 165.484543 71.581718 0.000119 175.896118 1.177290 24.871183 180.302734
9 165.484543 71.581718 0.000119 175.896118 1.177290 24.871183 180.302734
[L_humerus]
8 -13.983130 -135.272980 -120.471481 -168.517593 36.033752 -113.483025 181.680161
9 -13.983130 -135.272980 -120.471481 -168.517593 36.033752 -113.483017 181.680161
[R_humerus]
8 -13.983309 -135.273102 125.287651 -178.567581 -30.987236 -120.186783 184.909012
9 -13.983309 -135.273102 125.287651 -179.065048 -31.496332 -121.111191 184.909012
[weapon_bone]
8 235.964890 -300.705902 0.000000 0.000000 -89.951546 -128.212341 382.234833
9 235.964890 -300.705902 0.000000 0.000000 -89.951546 -128.212341 382.234833
[Bip01_Head]
8 189.519943 179.130249 22.124872 -21.233835 5.441475 13.722989 261.715424
9 189.519943 179.130249 22.124872 -21.415855 5.474591 13.811433 261.715424
[eye_left_bone]
8 -24.626970 125.451866 -64.772606 0.000000 -90.000000 -99.840431 143.318359
9 -24.626970 125.451866 -64.772606 0.000000 -90.000000 -99.840431 143.318359
[eye_right_bone]
8 -24.626970 125.451866 64.327362 0.000000 -89.965736 80.156380 143.117676
9 -24.626970 125.451866 64.327362 0.000000 -89.965736 80.156380 143.117676
[L_forearm]
8 322.776093 0.000000 -0.000119 0.000017 0.002347 -89.149834 322.776093
9 322.776093 0.000000 -0.000119 0.000017 0.002347 -89.149834 322.776093
[L_front_hand]
8 241.149185 -0.042021 -3.300071 30.675097 -2.244555 -0.018976 241.171753
9 241.149185 -0.042021 -3.300071 27.603319 -2.244512 -0.019987 241.171753
[L_weapon_bone]
8 156.183838 0.000000 0.000000 0.000014 0.000007 0.000001 156.183838
9 156.183838 0.000000 0.000000 0.000014 0.000007 0.000001 156.183838
[L_front_hand01_01]
8 86.095154 20.947098 -0.655860 -0.366594 -0.477154 75.385574 88.609184
9 86.095154 20.947098 -0.655860 -0.366594 -0.477154 75.385574 88.609184
[L_front_hand02_01]
8 86.935165 -11.437475 24.513514 154.399796 -59.883835 -61.369587 91.046425
9 86.935165 -11.437475 24.513514 154.399796 -59.883835 -61.369587 91.046425
[L_front_hand03_01]
8 86.637497 -14.123976 -20.424902 -153.913849 58.118122 -62.702866 90.126129
9 86.637497 -14.123976 -20.424902 -153.913849 58.118122 -62.702866 90.126129
[L_front_hand01_02]
8 71.020905 -0.000179 0.000030 0.000334 -0.002323 -106.379684 71.020905
9 71.020905 -0.000179 0.000030 0.000334 -0.002323 -106.379684 71.020905
[L_front_hand02_02]
8 71.020927 -0.000119 0.000060 0.000334 -0.002323 -106.379684 71.020927
9 71.020927 -0.000119 0.000060 0.000334 -0.002323 -106.379684 71.020927
[L_front_hand03_02]
8 71.020905 -0.000060 0.000060 0.000334 -0.002323 -106.379684 71.020905
9 71.020905 -0.000060 0.000060 0.000334 -0.002323 -106.379684 71.020905
[R_forearm]
8 322.776428 -0.000060 0.000030 0.213197 0.007525 -93.425262 322.776428
9 322.776428 -0.000060 0.000030 0.213197 0.007525 -93.425262 322.776428
[R_front_hand]
8 238.847015 -0.006795 2.210259 -0.270529 1.703932 2.322530 238.857239
9 238.847015 -0.006795 2.210259 -0.270529 1.703932 2.322530 238.857239
[R_weapon_bone]
8 155.664093 0.002503 -0.000030 0.003487 0.001180 -90.988930 155.664078
9 155.664093 0.002503 -0.000030 0.003487 0.001180 -90.988914 155.664078
[R_front_hand01_01]
8 87.624611 14.231146 22.918642 -154.633499 -59.950619 61.746044 91.683487
9 87.624611 14.231146 22.918642 -154.633484 -59.950607 61.746033 91.683487
[R_front_hand02_01]
8 89.356956 14.367283 -19.491137 154.602661 58.302849 63.744389 92.579636
9 89.356956 14.367283 -19.491137 154.602661 58.302856 63.744389 92.579636
[R_front_hand03_01]
8 87.286232 -22.307278 -0.143439 0.162155 -0.423168 -75.767921 90.091743
9 87.286232 -22.307278 -0.143439 0.162155 -0.423168 -75.767921 90.091743
[R_front_hand01_02]
8 71.020905 0.000060 0.000119 0.002323 -0.000334 106.381706 71.020905
9 71.020905 0.000060 0.000119 0.002323 -0.000334 106.381714 71.020905
[R_front_hand02_02]
8 71.020844 -0.000030 -0.000119 0.002323 -0.000334 106.381706 71.020836
9 71.020844 -0.000030 -0.000119 0.002323 -0.000334 106.381714 71.020836
[R_front_hand03_02]
8 71.020905 0.000000 0.000030 0.002323 -0.000334 106.381706 71.020905
9 71.020905 0.000000 0.000030 0.002323 -0.000334 106.381714 71.020905
[null_rope01_connect]
8 328.732483 0.000000 -0.000238 149.571701 -57.518471 -151.769592 328.732483
9 328.732483 0.000000 -0.000238 150.344513 -56.843407 -152.384415 328.732483
[Rope1_Seg01]
8 0.000000 0.000000 0.000000 147.411118 45.335167 -171.288635 0.000000
9 0.000000 0.000000 0.000000 146.713943 46.290226 -173.232437 0.000000
[Rope1_Seg02]
8 139.999863 -0.000179 0.000000 9.392282 -1.322995 -10.538062 139.999863
9 139.999863 -0.000179 0.000000 8.772540 -1.203691 -10.492195 139.999863
[Rope1_Seg03]
8 139.999924 0.000060 -0.000060 18.895531 -4.349854 -14.017793 139.999924
9 139.999924 0.000060 -0.000060 17.688522 -3.998969 -13.997940 139.999924
[Rope1_Seg04]
8 139.999924 -0.000060 -0.000119 35.935268 -16.386110 -18.454514 139.999924
9 139.999924 -0.000060 -0.000119 35.432896 -15.552275 -18.969833 139.999924
[Rope1_Seg05]
8 139.999832 0.000119 -0.000060 7.848258 -2.287384 -6.142639 139.999832
9 139.999832 0.000119 -0.000060 8.492081 -2.678862 -6.376256 139.999832
[Rope1_Seg06]
8 139.999954 0.000119 -0.000060 -10.173074 11.332935 -5.686741 139.999954
9 139.999954 0.000119 -0.000060 -10.213359 11.202829 -5.374093 139.999954
[Rope1_Seg07]
8 139.999985 0.000060 0.000000 -3.365128 3.679347 -2.185726 139.999985
9 139.999985 0.000060 0.000000 -3.492801 3.723357 -2.126903 139.999985
[Rope1_Seg09]
8 121.602913 0.000119 -0.000089 -89.793175 -1.359789 0.847147 121.602913
9 121.602913 0.000119 -0.000089 -89.793175 -1.359789 0.847147 121.602913
[L_mid_hand01]
8 103.859421 1.038730 8.195221 106.855484 -31.239275 -9.461397 104.187431
9 103.859421 1.038730 8.195221 106.855484 -31.239275 -9.461397 104.187431
[L_mid_hand02]
8 105.572853 -4.139662 -10.864139 -142.331345 25.752670 -28.774628 106.211075
9 105.572853 -4.139662 -10.864139 -142.331345 25.752670 -28.774628 106.211075
[L_mid_hand03]
8 104.641464 17.579376 -3.913581 -16.122810 9.734291 34.223598 106.179977
9 104.641464 17.579376 -3.913581 -16.122810 9.734291 34.223598 106.179977
[null_rope02_connect]
8 328.732849 0.000179 -0.000119 -33.446857 84.216087 145.943283 328.732849
9 328.732849 0.000179 -0.000119 -36.302505 84.563400 142.966843 328.732849
[Rope2_Seg01]
8 0.000076 0.000110 0.000153 50.139992 77.633636 164.646255 0.000203
9 0.000076 0.000110 0.000153 51.749554 77.250107 166.366714 0.000203
[Rope2_Seg02]
8 139.999741 -0.000060 -0.000119 -1.468302 11.785021 4.122367 139.999756
9 139.999741 -0.000060 -0.000119 -1.475712 12.049553 4.154034 139.999756
[Rope2_Seg03]
8 140.000107 0.000030 0.000000 -5.264312 18.402636 7.420752 140.000107
9 140.000107 0.000030 0.000000 -5.336308 18.602732 7.402083 140.000107
[Rope2_Seg04]
8 139.999802 0.000000 -0.000060 -9.545976 16.171808 8.554213 139.999802
9 139.999802 0.000000 -0.000060 -9.590494 16.122643 8.471274 139.999802
[Rope2_Seg05]
8 139.999985 -0.000060 0.000119 1.151963 -0.722995 -1.227304 139.999985
9 139.999985 -0.000060 0.000119 1.066501 -0.645642 -1.132051 139.999985
[Rope2_Seg06]
8 139.999893 -0.000030 -0.000119 -0.464334 0.709810 0.223817 139.999893
9 139.999893 -0.000030 -0.000119 -0.466811 0.699935 0.226315 139.999893
[Rope2_Seg07]
8 139.999893 0.000060 -0.000060 -0.641511 0.780422 0.404831 139.999893
9 139.999893 0.000060 -0.000060 -0.665091 0.795434 0.420410 139.999893
[Rope2_Seg09]
8 121.338966 0.000089 -0.000060 33.793236 -1.359788 -0.847141 121.338966
9 121.338966 0.000089 -0.000060 33.793236 -1.359788 -0.847141 121.338966
[R_mid_hand01]
8 104.680779 11.144459 -10.335981 -41.523792 25.424656 28.595957 105.778534
9 104.680779 11.144459 -10.335981 -41.523792 25.424656 28.595957 105.778534
[R_mid_hand02]
8 104.070427 2.443552 8.231699 72.847389 -32.746803 10.013901 104.424065
9 104.070427 2.443552 8.231699 72.847389 -32.746803 10.013901 104.424065
[R_mid_hand03]
8 106.028137 -11.221827 -5.996406 -167.901306 10.259192 -37.009720 106.788818
9 106.028137 -11.221827 -5.996406 -167.901306 10.259192 -37.009720 106.788818
[spine02]
8 129.756927 0.001550 0.000119 -0.245322 -4.052060 -4.355547 129.756927
9 129.756927 0.001550 0.000119 -0.245322 -4.052059 -4.355546 129.756927
[spine03]
8 78.613846 0.087372 -4.898873 0.207412 -2.089717 -0.432471 78.766380
9 78.613846 0.087372 -4.898873 0.207411 -2.089716 -0.432471 78.766380
[pelvis]
8 169.435242 0.051022 0.000000 -0.010007 -0.191417 -1.897554 169.435257
9 169.435242 0.051022 0.000000 -0.010007 -0.191417 -1.897553 169.435257
[null_rope03_connect]
8 -1.257226 -2.466202 137.391083 137.735611 -72.521217 -86.974945 137.418976
9 -1.257226 -2.466202 137.391083 137.733047 -72.512856 -86.836617 137.418976
[null_rope04_connect]
8 -1.259640 -2.480268 -137.844437 137.735611 -72.521217 -86.974945 137.872513
9 -1.259640 -2.480268 -137.844437 137.733047 -72.512856 -86.836617 137.872513
[Rope3_Seg01]
8 0.000000 0.000000 0.000000 151.955185 69.979942 -143.208359 0.000000
9 0.000000 0.000000 0.000000 154.256073 69.229370 -141.419022 0.000000
[Rope3_Seg02]
8 139.999924 -0.000119 0.000060 9.488130 13.591994 -2.728891 139.999924
9 139.999924 -0.000119 0.000060 9.727282 13.721765 -2.975303 139.999924
[Rope3_Seg03]
8 139.999924 -0.000119 0.000119 16.780777 20.247885 -4.896526 139.999924
9 139.999924 -0.000119 0.000119 16.942917 20.332323 -5.039878 139.999924
[Rope3_Seg04]
8 139.999924 0.000119 0.000000 13.594397 13.868320 -10.289060 139.999924
9 139.999924 0.000119 0.000000 12.439324 12.347747 -10.165220 139.999924
[Rope3_Seg05]
8 139.999924 -0.000238 0.000060 -6.926227 -17.650898 -3.791587 139.999924
9 139.999924 -0.000238 0.000060 -7.375221 -18.924244 -3.632190 139.999924
[Rope3_Seg06]
8 139.999893 -0.000119 -0.000060 -2.242695 -13.317657 -4.249711 139.999893
9 139.999893 -0.000119 -0.000060 -2.015251 -13.377474 -4.429833 139.999893
[Rope3_Seg07]
8 139.999771 0.000060 -0.000119 0.009923 -6.567637 -3.511712 139.999771
9 139.999771 0.000060 -0.000119 0.069336 -6.729374 -3.510552 139.999771
[Rope3_Seg08]
8 139.999985 -0.000060 0.000000 0.387463 -3.968962 -2.134874 139.999985
9 139.999985 -0.000060 0.000000 0.432580 -4.042439 -2.112013 139.999985
[Rope3_Seg09]
8 90.185997 -0.000179 -0.000060 89.793228 -1.359877 -0.847183 90.185997
9 90.185997 -0.000179 -0.000060 89.793228 -1.359877 -0.847183 90.185997
[R_rear_hand01]
8 103.366196 -6.073594 -10.757982 -161.551193 16.666374 -30.088671 104.101845
9 103.366196 -6.073594 -10.757982 -161.551193 16.666374 -30.088671 104.101845
[R_rear_hand02]
8 100.509819 12.039542 -7.992327 -34.280552 19.289745 28.875523 101.543350
9 100.509819 12.039542 -7.992327 -34.280552 19.289745 28.875523 101.543350
[R_rear_hand03]
8 101.539970 5.215704 5.435467 83.366440 -30.933914 7.284830 101.819031
9 101.539970 5.215704 5.435467 83.366440 -30.933914 7.284830 101.819031
[Rope4_Seg01]
8 0.000010 0.000038 -0.000114 -8.503148 69.295265 -172.839691 0.000121
9 0.000010 0.000038 -0.000114 -8.011340 69.928154 -172.309753 0.000121
[Rope4_Seg02]
8 139.999985 0.000060 0.000119 0.256411 -5.170485 10.348778 139.999985
9 139.999985 0.000060 0.000119 0.129697 -5.195434 10.188008 139.999985
[Rope4_Seg03]
8 139.999924 0.000000 -0.000238 0.088897 -7.047393 13.754735 139.999924
9 139.999924 0.000000 -0.000238 -0.036078 -7.040143 13.447991 139.999924
[Rope4_Seg04]
8 139.999985 0.000000 0.000119 -0.089116 -8.648108 16.396864 139.999985
9 139.999985 0.000000 0.000119 -0.178056 -8.621337 15.967444 139.999985
[Rope4_Seg05]
8 139.999802 -0.000060 -0.000119 0.040107 3.201892 0.136364 139.999802
9 139.999802 -0.000060 -0.000119 0.052463 2.989093 0.240500 139.999802
[Rope4_Seg06]
8 139.999924 0.000000 0.000060 -0.092287 7.645447 -6.451632 139.999924
9 139.999924 0.000000 0.000060 -0.050240 7.266930 -6.047814 139.999924
[Rope4_Seg07]
8 139.999802 0.000000 0.000000 0.361336 3.830388 -1.922869 139.999802
9 139.999802 0.000000 0.000000 0.340333 3.585187 -1.722914 139.999802
[Rope4_Seg08]
8 139.999924 0.000000 0.000119 -1.188853 2.717943 -1.382146 139.999924
9 139.999924 0.000000 0.000119 -1.212095 2.543461 -1.244758 139.999924
[Rope4_Seg09]
8 90.185791 0.000060 0.000060 -135.617828 2.228885 0.850567 90.185791
9 90.185791 0.000060 0.000060 -135.617828 2.228885 0.850567 90.185791
[L_rear_hand01]
8 101.696655 -8.392275 -7.654577 -34.454281 -18.946800 151.655121 102.329041
9 101.696655 -8.392275 -7.654577 -34.454281 -18.946800 151.655121 102.329041
[L_rear_hand02]
8 102.726799 -1.568258 5.773216 83.407906 30.330435 172.796509 102.900848
9 102.726799 -1.568258 5.773216 83.407906 30.330435 172.796509 102.900848
[L_rear_hand03]
8 104.552910 9.721220 -10.420293 -161.379868 -16.473232 -150.512238 105.519653
9 104.552910 9.721220 -10.420293 -161.379868 -16.473232 -150.512238 105.519653
